<?xml version="1.0" encoding="utf-8"?>
<!-- Generator: Adobe Illustrator 17.1.0, SVG Export Plug-In . SVG Version: 6.00 Build 0)  -->
<!DOCTYPE svg PUBLIC "-//W3C//DTD SVG 1.1//EN" "http://www.w3.org/Graphics/SVG/1.1/DTD/svg11.dtd">
<svg version="1.1" xmlns="http://www.w3.org/2000/svg" xmlns:xlink="http://www.w3.org/1999/xlink" x="0px" y="0px"
	 viewBox="0 0 225 126" enable-background="new 0 0 225 126" xml:space="preserve">
<g id="background" display="none">
	<rect display="inline" fill="#B0BEC5" width="225" height="126"/>
</g>
<g id="label">
</g>
<g id="art">
	<g id="ic_x5F_add_x0D_">
	</g>
	<circle cx="78" cy="98" r="4"/>
	<circle cx="171" cy="90" r="4"/>
	<circle cx="132" cy="61" r="4"/>
	<circle cx="53" cy="61" r="4"/>
	<circle cx="126" cy="28" r="4"/>
	<circle cx="91" cy="67" r="4"/>
	<circle cx="132" cy="90" r="4"/>
	<circle cx="65" cy="32" r="4"/>
	<path d="M77.7,99.4L51.9,61.1L64.3,31l64.1-4.2L92.6,66.7l16.1,9l23.3-16L174,91h-42.3l-23-12.9L77.7,99.4z M54.1,60.9l24.1,35.7
		L106.8,77l-17.4-9.8l34.2-38.1L65.7,33L54.1,60.9z M132.3,89H168l-36-26.8l-21.4,14.6L132.3,89z"/>
</g>
<g id="Guides">
</g>
</svg>
